<svg data-name="Layer 1" xmlns="http://www.w3.org/2000/svg" width="909" height="556.371" viewBox="0 0 909 556.371"><path d="M715.795 318.69l-9.73-8.18.914-1.086.914.769a3.498 3.498 0 01-.076-1.545 3.116 3.116 0 01.718-1.397 3.631 3.631 0 011.8-1.2 3.717 3.717 0 012.182.06 6.245 6.245 0 012.147 1.205 6.144 6.144 0 011.618 2.022 3.818 3.818 0 01.378 2.24 3.775 3.775 0 01-.846 1.94 2.93 2.93 0 01-1.15.858 3.186 3.186 0 01-1.29.243l3.424 2.88zm-5.265-6.269a4 4 0 002.469 1.138 2.201 2.201 0 001.768-.786 2.252 2.252 0 00.472-1.926 4.167 4.167 0 00-1.607-2.318 4.058 4.058 0 00-2.478-1.14 2.176 2.176 0 00-1.78.76 2.243 2.243 0 00-.421 1.946 4.162 4.162 0 001.577 2.326zM718.774 309.675l-1.496-5.644-5.377-.462 1.253-1.49 2.557.307q.727.09 1.2.172-.192-.659-.324-1.188l-.665-2.583 1.197-1.424 1.268 5.215 5.922.513-1.23 1.464-3.4-.394-.913-.111 1.222 4.18zM683.611 336.31l6.436-7.654 7.654 6.435-6.435 7.654zM693.908 324.063l6.435-7.654 7.654 6.435-6.435 7.654z" fill="#3f3d56"/><path d="M715.795 318.69l-9.73-8.18.914-1.086.914.769a3.498 3.498 0 01-.076-1.545 3.116 3.116 0 01.718-1.397 3.631 3.631 0 011.8-1.2 3.717 3.717 0 012.182.06 6.245 6.245 0 012.147 1.205 6.144 6.144 0 011.618 2.022 3.818 3.818 0 01.378 2.24 3.775 3.775 0 01-.846 1.94 2.93 2.93 0 01-1.15.858 3.186 3.186 0 01-1.29.243l3.424 2.88zm-5.265-6.269a4 4 0 002.469 1.138 2.201 2.201 0 001.768-.786 2.252 2.252 0 00.472-1.926 4.167 4.167 0 00-1.607-2.318 4.058 4.058 0 00-2.478-1.14 2.176 2.176 0 00-1.78.76 2.243 2.243 0 00-.421 1.946 4.162 4.162 0 001.577 2.326zM718.774 309.675l-1.496-5.644-5.377-.462 1.253-1.49 2.557.307q.727.09 1.2.172-.192-.659-.324-1.188l-.665-2.583 1.197-1.424 1.268 5.215 5.922.513-1.23 1.464-3.4-.394-.913-.111 1.222 4.18zM683.611 336.31l6.436-7.654 7.654 6.435-6.435 7.654zM693.908 324.063l6.435-7.654 7.654 6.435-6.435 7.654zM0 554.371h909v2H0z" fill="#3f3d56"/><circle cx="483.07" cy="82.416" r="11.409" fill="#f2f2f2"/><path d="M202.247 116.822a22.031 22.031 0 00-14.305-20.31 22 22 0 10-15.936.213 21.991 21.991 0 00.549 40.996 22 22 0 1015.936-.213 22.031 22.031 0 0013.756-20.686zm-42.545-40.434a20 20 0 1124.77 19.138 22.023 22.023 0 00-9.024.12 20.02 20.02 0 01-15.746-19.258zm41.093 81.457a20 20 0 11-24.77-19.137 22.024 22.024 0 009.024-.121 20.02 20.02 0 0115.746 19.258zm-15.773-21.323a22.023 22.023 0 00-9.026.12 19.979 19.979 0 01-.52-38.93 22.024 22.024 0 009.025-.121 19.979 19.979 0 01.52 38.93z" fill="#f2f2f2"/><path fill="#3498db" d="M106.196 198.825H89.661v209.203h104.961v-16.535h-88.426V198.825zM252.135 198.825H235.6v209.203h104.961V198.825h-88.426zm71.891 192.668h-71.891V215.36h71.891zM630.642 199.185h-88.426v209.203h104.96V199.185zm0 192.668H558.75V215.72h71.89zM468.887 303.427h-13.66v16.535h13.66v71.891h-71.891V215.72h88.426v-16.535H380.461v209.203h104.961v-88.426h13.659v-16.535H468.887z"/><path fill="#3f3d56" d="M150.881 180.217h5.317v1.772h-5.317zM569.757 181.99h-10.884v-1.773h10.884zm-21.766 0h-10.883v-1.773h10.883zm-21.767 0h-10.883v-1.773h10.883zm-21.766 0h-10.883v-1.773h10.883zm-21.766 0H471.81v-1.773h10.883zm-21.766 0h-10.884v-1.773h10.884zm-21.767 0h-10.882v-1.773h10.882zm-21.766 0H406.51v-1.773h10.883zm-21.766 0h-10.884v-1.773h10.884zm-21.766 0h-10.883v-1.773h10.883zm-21.767 0h-10.883v-1.773h10.883zm-21.766 0h-10.883v-1.773h10.883zm-21.766 0h-10.883v-1.773h10.883zm-21.766 0h-10.884v-1.773h10.884zm-21.767 0h-10.883v-1.773h10.883zm-21.766 0H232.38v-1.773h10.883zm-21.766 0h-10.883v-1.773h10.883zm-21.766 0h-10.884v-1.773h10.884zm-21.767 0h-10.883v-1.773h10.883zM580.64 180.217h5.317v1.772h-5.317zM664.155 226.294h1.772v5.317h-1.772zM665.927 364.526h-1.772V353.45h1.772zm0-22.153h-1.772v-11.076h1.772zm0-22.152h-1.772v-11.076h1.772zm0-22.153h-1.772v-11.076h1.772zm0-22.152h-1.772V264.84h1.772zm0-22.153h-1.772v-11.076h1.772zM664.155 375.602h1.772v5.317h-1.772z"/><path fill="#f2f2f2" d="M89.076 119.298h1.772v368.618h-1.772zM646.433 119.076h1.772v368.618h-1.772z"/><path fill="#f2f2f2" d="M.687 407.059H736.15v1.772H.687zM.466 197.939h735.463v1.772H.466z"/><path d="M792.051 110.486a7.791 7.791 0 01-.686 3.635 8.1 8.1 0 01-2.765 2.584l-8.078 5.448c-2.382 1.607-5.075 4.454-3.547 6.887a5.252 5.252 0 002.304 1.744c8.273 3.972 17.716 4.727 26.891 4.58 5.852-.093 11.972-.61 16.927-3.725 2.358-1.483 4.394-3.523 6.983-4.55 1.791-.712 4.12-1.232 4.579-3.105.621-2.537-2.719-3.943-5.13-4.949-5.16-2.153-8.743-7.128-10.422-12.46s-1.691-11.038-1.427-16.623a3.037 3.037 0 00-.514-2.299 2.956 2.956 0 00-1.896-.666 100.23 100.23 0 00-16.735-.282 11.694 11.694 0 00-5.921 1.54c-3.393 2.325-1.468 6.265-1.11 9.536a98.846 98.846 0 01.547 12.705z" fill="#9f616a"/><path d="M826.993 0a19.37 19.37 0 01-12.014 6.293c-8.009 1.144-1.716 13.73-1.716 13.73s-2.288-4.577 2.288-8.581S826.993 5.149 826.993 0z" fill="#2f2e41"/><circle cx="811.552" cy="22.655" r="9.875" fill="#2f2e41"/><path d="M823.08 32.378c-7.629-3.985-20.753-7.119-27.726-6.895l1.764-6.743c6.173 4.194 19.229 7.386 27.726 6.895z" fill="#3498db"/><circle cx="801.096" cy="60.412" r="35.434" fill="#2f2e41"/><path fill="#9f616a" d="M774.084 503.918h16.265v27.883h-16.265zM821.136 503.918h16.265v27.883h-16.265zM770.018 215.218l-7.876 26.283 79.906 1.6-6.39-27.883-20.912-13.941-44.728 13.941z"/><circle cx="797.901" cy="75.806" r="25.559" fill="#9f616a"/><path d="M751.099 181.283a36.202 36.202 0 00-2.565 14.314c.225 5.677 1.994 12.937.892 17.862-4.262 19.051-10.584 47.34-22.012 62.768-2.683 3.622-7.931 5.619-11.91 8.363s-7.768 5.743-9.924 10.598c-1.678 3.777-1.621 8.362-1.494 12.648.071 2.365.3 5.065 2.35 6.625a2.247 2.247 0 001.372-2.184c.102-.971-.092-1.963.074-2.965a6.064 6.064 0 013.213-4.123c9.333-5.767 19.318-10.8 24.264-20.839s8.696-18.993 15.392-27.835a73.975 73.975 0 005.263-7.018 54.8 54.8 0 005.812-14.302c2.737-10.514 3.972-21.584 4.807-32.309.426-5.481.396-11.352-3.764-14.896-3.848-3.278-8.533-2.863-11.77-6.707zM866.63 168.985a41.395 41.395 0 011.326 14.857c-.561 6.046-2.455 12.07-1.604 18.082 3.292 23.26-.299 47.324 1.55 70.742.435 5.499 2.203 11.583 2.518 17.09s-.324 11.25-3.127 16c-2.18 3.695-5.512 6.544-8.782 9.32-1.804 1.532-4.18 3.16-6.34 2.193a2.229 2.229 0 01.563-2.568c.644-.689 1.494-1.17 2.087-1.904 1.144-1.416 1.097-3.421.969-5.237-.761-10.784-2.347-21.841.597-32.244 2.935-10.371 1.132-21.697-1.86-32.053-.799-2.768-1.84-5.465-2.536-8.26-1.206-4.85-1.345-9.891-1.478-14.886l-.822-30.82c-.14-5.25.18-11.44 4.558-14.343 4.049-2.685 9.194-2.302 12.38-5.969z" fill="#9f616a"/><path d="M842.035 231.72c-5.22 2.844-10.497 5.713-16.226 7.3-5.998 1.661-12.29 1.863-18.51 2.055a46.425 46.425 0 01-21.842-3.09l-22.589-7.71c-15.98 38.375-22.261 80.898-13.59 121.554 3.158 14.802-.15 30.134-.144 45.27a149.295 149.295 0 00.585 16.073c.447 4.121 1.238 8.198 1.78 12.308 3.302 25.036-2.657 50.653 1.063 75.63.51 3.43 4.67 5.328 7.976 6.37a32.56 32.56 0 005.095 1.025c8.758 1.282 17.619 2.567 26.43 1.725 2.153-.205 4.705-.866 5.36-2.927.522-1.644-.43-3.609.467-5.082 5.722-9.403 1.459-22.287 2.046-33.278 1.555-29.076-.346-58.304 2.337-87.298.513-5.55-.219-10.45.284-16l.341-3.77 1.037-11.453c.62 15.964 1.286 31.545 1.905 47.508.18 4.642.37 9.346 1.732 13.787.72 2.351 1.762 4.601 2.354 6.988a38.567 38.567 0 01.834 7.85l2.642 70.326a57.5 57.5 0 01-.538 7.565c-.26 2.877-.312 6.267 1.952 8.062a7.464 7.464 0 004.003 1.304c4.309.404 8.632-.357 12.892-1.116 4.312-.768 13.27-1.536 17.582-2.304a6.662 6.662 0 001.89-.534c1.944-.994 2.425-3.569 2.242-5.745s-.787-4.42-.114-6.498c8.729-26.94-1.868-56.521.098-84.773 1.751-25.159 1.505-50.41 1.257-75.628-.146-14.913-1.155-29.501-.843-44.412.38-18.168 1.733-37.197-5.965-53.658-1.36-2.906-3.122-5.693-5.823-7.424zM792.673 521.345s-16.846-8.133-19.75 0-8.714 27.301-2.324 31.948a14.806 14.806 0 0014.495 1.671c4.127-1.754 8.168-3.97 7.579-5.737-1.162-3.485 0-27.882 0-27.882zM818.813 521.345s16.845-8.133 19.75 0 8.713 27.301 2.323 31.948a14.806 14.806 0 01-14.495 1.671c-4.127-1.754-8.167-3.97-7.578-5.737 1.161-3.485 0-27.882 0-27.882zM839.683 123.53a655.19 655.19 0 00-72.96 2.771 13.663 13.663 0 00-5.228 1.21 12.666 12.666 0 00-3.553 3.215 77.595 77.595 0 00-17.904 46.188c-.092 2.19-.007 4.613 1.476 6.226 6.723 7.311 15.246 12.648 20.574 21.03a32.954 32.954 0 004.46 6.287 65.425 65.425 0 00-.435 18.118c3.53-4.615 8.81-7.647 14.334-9.448s11.343-2.471 17.116-3.133c8.425-.965 17.44-1.827 24.947 2.117 5.891 3.096 10.183 8.863 16.378 11.292a115.68 115.68 0 001.448-15.693c.175-7.364 5.702-12.8 8.614-19.565a37.068 37.068 0 012.882-5.752c2.95-4.496 7.755-7.518 12.829-9.296s10.462-2.43 15.8-3.069c2.43-3.416 1.648-7.785-.04-11.622s-4.507-7.04-6.947-10.447c-4.739-6.619-8.142-14.167-13.35-20.423a26.744 26.744 0 00-20.44-10.006zM808.236 35.722s-12.022 15.457-36.065 18.891-5.152 41.218-5.152 41.218-6.87-13.74 6.87-25.761 34.347-18.891 34.347-34.348z" fill="#2f2e41"/><path d="M808.236 35.722s6.87 24.044 17.174 27.478 5.152 39.5-12.022 42.935c0 0 14.598-19.75 6.011-35.206S805.66 43.45 808.236 35.722z" fill="#2f2e41"/><path d="M808.236 35.722s-12.022 15.457-36.065 18.891-5.152 41.218-5.152 41.218-6.87-13.74 6.87-25.761 34.347-18.891 34.347-34.348z" fill="#2f2e41"/><path d="M808.236 35.722s6.87 24.044 17.174 27.478 5.152 39.5-12.022 42.935c0 0 14.598-19.75 6.011-35.206S805.66 43.45 808.236 35.722z" fill="#2f2e41"/><path d="M384.808 166.482V153.77h1.419v1.194a3.498 3.498 0 011.134-1.051 3.116 3.116 0 011.531-.35 3.631 3.631 0 012.077.605 3.717 3.717 0 011.359 1.71 6.245 6.245 0 01.458 2.418 6.144 6.144 0 01-.506 2.54 3.819 3.819 0 01-1.471 1.73 3.775 3.775 0 01-2.03.602 2.93 2.93 0 01-1.397-.33 3.186 3.186 0 01-1.017-.83v4.474zm1.41-8.065a4 4 0 00.719 2.622 2.201 2.201 0 001.739.848 2.252 2.252 0 001.778-.878 4.167 4.167 0 00.74-2.722 4.058 4.058 0 00-.723-2.63 2.176 2.176 0 00-1.726-.874 2.243 2.243 0 00-1.76.93 4.162 4.162 0 00-.767 2.704zM393.626 162.96l3.357-4.777-3.106-4.413h1.947l1.41 2.155q.399.614.64 1.03.38-.572.701-1.013l1.55-2.172h1.86l-3.176 4.327 3.418 4.863h-1.912l-1.887-2.856-.502-.77-2.414 3.626zM334.611 153.185h10v10h-10zM350.611 153.185h10v10h-10zM366.611 153.185h10v10h-10z" fill="#3f3d56"/></svg>